<svg preserveAspectRatio="none" overflow="visible" style="display: block;" width="16" height="16" viewBox="0 0 16 16" fill="none" xmlns="http://www.w3.org/2000/svg">
<g id="Icon">
<path id="Vector" fill-rule="evenodd" clip-rule="evenodd" d="M3.666 2.02667C2.90867 2.164 2.30667 2.69933 2.076 3.44C1.986 3.72933 1.986 4.27067 2.076 4.56C2.26867 5.17867 2.75667 5.69267 3.34 5.89067L3.48 5.93867L3.48667 8.004L3.49333 10.07L3.36667 10.1027C3.19867 10.1453 2.9 10.3133 2.726 10.4633C2.40533 10.7387 2.19667 11.0527 2.076 11.44C1.986 11.7293 1.986 12.2707 2.076 12.56C2.28067 13.2173 2.78267 13.7193 3.44 13.924C3.72933 14.014 4.27067 14.014 4.56 13.924C5.21733 13.7193 5.71933 13.2173 5.924 12.56C6.014 12.2707 6.014 11.7293 5.924 11.44C5.80333 11.0527 5.59467 10.7387 5.274 10.4633C5.1 10.3133 4.80133 10.1453 4.63333 10.1027L4.50667 10.07L4.51333 8.004L4.52 5.93867L4.66 5.89067C5.206 5.70533 5.70533 5.206 5.89067 4.66L5.93867 4.52H8.416H10.8933L11.0187 4.582C11.178 4.66067 11.3393 4.822 11.418 4.98133L11.48 5.10667L11.4873 7.588L11.494 10.07L11.3673 10.102C11.1987 10.1453 10.9 10.3133 10.726 10.4633C10.4053 10.7387 10.1967 11.0527 10.076 11.44C9.986 11.7293 9.986 12.2707 10.076 12.56C10.2807 13.2173 10.7827 13.7193 11.44 13.924C11.608 13.976 11.698 13.986 12 13.986C12.302 13.986 12.392 13.976 12.56 13.924C13.2047 13.7233 13.7013 13.2347 13.9147 12.5913C13.974 12.4133 13.9827 12.3387 13.9847 12.0133C13.9867 11.5927 13.9413 11.392 13.7707 11.0667C13.5473 10.6413 13.0327 10.2047 12.634 10.1027L12.5087 10.0707L12.5007 7.53533L12.4933 5L12.4207 4.78667C12.2567 4.30267 11.916 3.90667 11.48 3.69267C11.0873 3.5 11.25 3.51067 8.456 3.49467L5.93867 3.48L5.89067 3.34C5.69333 2.75933 5.16933 2.26 4.574 2.086C4.33333 2.01533 3.888 1.98667 3.666 2.02667ZM4.43533 3.10533C4.61667 3.19733 4.81733 3.402 4.908 3.58667C4.96467 3.70267 4.97333 3.75667 4.97333 4C4.97333 4.256 4.96667 4.29333 4.896 4.432C4.796 4.63 4.61067 4.816 4.42667 4.90333C4.29733 4.96533 4.24667 4.97333 4 4.97333C3.75333 4.97333 3.70267 4.96533 3.57333 4.90333C3.38933 4.816 3.204 4.63 3.104 4.432C3.03333 4.29333 3.02667 4.256 3.02667 4C3.02667 3.75667 3.03533 3.70267 3.092 3.58667C3.20733 3.352 3.43533 3.144 3.67733 3.05133C3.74067 3.02667 3.85933 3.01667 4.028 3.02133C4.24733 3.02733 4.30333 3.03867 4.43533 3.10533ZM4.43533 11.1053C4.61667 11.1973 4.81733 11.402 4.908 11.5867C4.96467 11.7027 4.97333 11.7567 4.97333 12C4.97333 12.256 4.96667 12.2933 4.896 12.432C4.69467 12.83 4.29133 13.044 3.85467 12.9847C3.53933 12.942 3.25667 12.7333 3.104 12.432C3.03333 12.2933 3.02667 12.256 3.02667 12C3.02667 11.7567 3.03533 11.7027 3.092 11.5867C3.20733 11.352 3.43533 11.144 3.67733 11.0513C3.74067 11.0267 3.85933 11.0167 4.028 11.0213C4.24733 11.0273 4.30333 11.0387 4.43533 11.1053ZM12.4353 11.1053C12.6167 11.1973 12.8173 11.402 12.908 11.5867C12.9647 11.7027 12.9733 11.7567 12.9733 12C12.9733 12.256 12.9667 12.2933 12.896 12.432C12.7433 12.7333 12.4607 12.942 12.1453 12.9847C11.7087 13.044 11.3053 12.83 11.104 12.432C11.0333 12.2933 11.0267 12.256 11.0267 12C11.0267 11.7567 11.0353 11.7027 11.092 11.5867C11.2073 11.352 11.4353 11.144 11.6773 11.0513C11.7407 11.0267 11.8593 11.0167 12.028 11.0213C12.2473 11.0273 12.3033 11.0387 12.4353 11.1053Z" fill="#956CDE"/>
</g>
</svg>
