<svg preserveAspectRatio="none" overflow="visible" style="display: block;" width="16" height="16" viewBox="0 0 16 16" fill="none" xmlns="http://www.w3.org/2000/svg">
<g id="Icon">
<path id="Vector" fill-rule="evenodd" clip-rule="evenodd" d="M3.42667 1.37667C3.106 1.44467 2.82 1.60467 2.55733 1.866C2.302 2.11933 2.17333 2.326 2.07533 2.64L2.01333 2.84V8.01333V13.1867L2.08867 13.4C2.28533 13.956 2.69933 14.374 3.25 14.5713L3.48 14.6533L5.76 14.6613C7.368 14.6673 8.06933 14.6613 8.14067 14.6407C8.46133 14.546 8.59733 14.1687 8.412 13.8873C8.27667 13.6813 8.442 13.6947 5.92 13.68L3.66667 13.6667L3.51867 13.5973C3.32333 13.5053 3.20067 13.3947 3.10533 13.222L3.02667 13.08L3.02 8.02933L3.01267 2.97933L3.08133 2.82933C3.16067 2.65533 3.27133 2.53333 3.44 2.432L3.56 2.36H7.66667H11.7733L11.8933 2.43133C12.0453 2.52067 12.1647 2.64667 12.2447 2.8L12.3067 2.92L12.32 5.69333C12.3347 8.78067 12.3193 8.54 12.518 8.71467C12.7487 8.91733 13.1413 8.83333 13.2773 8.552L13.3347 8.43333L13.3273 5.62333L13.32 2.81333L13.2573 2.62667C13.154 2.31667 13.0247 2.11267 12.776 1.866C12.594 1.68533 12.5 1.61533 12.32 1.52733C11.9007 1.322 12.168 1.33333 7.648 1.33533C4.20533 1.33733 3.586 1.34333 3.42667 1.37667ZM5.02667 4.02267C4.534 4.18467 4.562 4.876 5.066 4.984C5.25733 5.02467 10.076 5.02467 10.2673 4.984C10.5233 4.92933 10.6893 4.698 10.66 4.43733C10.644 4.29933 10.5907 4.21467 10.4427 4.09467L10.342 4.01333L7.71067 4.00933C6.264 4.00667 5.056 4.01267 5.02667 4.02267ZM5.02667 6.68867C4.534 6.85333 4.562 7.54267 5.066 7.65067C5.252 7.69067 7.41467 7.69067 7.60067 7.65067C7.85667 7.596 8.02267 7.36467 7.99333 7.104C7.97733 6.966 7.924 6.88133 7.776 6.76133L7.67533 6.68L6.37733 6.67533C5.664 6.67333 5.056 6.67933 5.02667 6.68867ZM5.02667 9.35533C4.534 9.52333 4.562 10.2093 5.066 10.3173C5.14133 10.3333 5.41133 10.3467 5.66667 10.3467C5.922 10.3467 6.192 10.3333 6.26733 10.3173C6.52333 10.2627 6.68933 10.0313 6.66 9.77067C6.644 9.63267 6.59067 9.548 6.44267 9.428L6.342 9.34667L5.71067 9.342C5.364 9.33933 5.056 9.34533 5.02667 9.35533ZM11.238 9.68267C10.2693 9.76733 9.38267 10.5027 9.10933 11.4473C8.78867 12.5533 9.25267 13.7433 10.2267 14.312C10.5747 14.5153 11.112 14.6667 11.4873 14.6667C11.8727 14.6667 12.3433 14.5453 12.6947 14.3553L12.8793 14.256L13.3933 14.7647C13.9207 15.2873 13.9853 15.334 14.1867 15.3327C14.3873 15.3313 14.6247 15.1187 14.656 14.9127C14.6913 14.6767 14.654 14.6193 14.0987 14.06L13.5887 13.5467L13.686 13.3667C13.914 12.9433 13.9853 12.6507 13.9833 12.1467C13.9827 11.7907 13.974 11.72 13.91 11.5067C13.87 11.3747 13.8027 11.1913 13.76 11.1C13.4093 10.344 12.62 9.77 11.8267 9.69333C11.7387 9.68467 11.6247 9.674 11.5733 9.67C11.522 9.66533 11.3713 9.67133 11.238 9.68267ZM11.864 10.708C12.1167 10.7673 12.336 10.8947 12.5493 11.106C12.856 11.4087 12.9867 11.728 12.9867 12.174C12.9867 12.6033 12.8533 12.9153 12.5367 13.2267C12.2293 13.5293 11.9267 13.6533 11.498 13.6533C10.99 13.6533 10.5693 13.4373 10.284 13.0307C10.1313 12.8127 10.0573 12.6293 10.02 12.3727C9.94067 11.8287 10.164 11.2947 10.6107 10.96C10.772 10.8387 11.056 10.7113 11.2267 10.6847C11.3873 10.6593 11.7067 10.6707 11.864 10.708Z" fill="#191919" fill-opacity="0.56"/>
</g>
</svg>
